<svg width="318" height="56" viewBox="0 0 318 56" fill="none" xmlns="http://www.w3.org/2000/svg">
<path d="M8.57013 43C7.11413 43 5.77013 42.6453 4.53813 41.936C3.30613 41.1893 2.33547 40.2187 1.62613 39.024C0.916799 37.792 0.562132 36.4293 0.562132 34.936V31.52H8.62613V34.544C8.62613 34.656 8.6448 34.7493 8.68213 34.824C8.7568 34.8613 8.83147 34.88 8.90613 34.88H32.3701C32.4448 34.88 32.5195 34.8613 32.5941 34.824C32.6688 34.7493 32.7061 34.656 32.7061 34.544V27.208C32.7061 27.1333 32.6688 27.0773 32.5941 27.04C32.5195 26.9653 32.4448 26.928 32.3701 26.928H8.57013C7.11413 26.928 5.77013 26.5733 4.53813 25.864C3.30613 25.1173 2.33547 24.128 1.62613 22.896C0.916799 21.664 0.562132 20.32 0.562132 18.864V10.744C0.562132 9.25066 0.916799 7.90666 1.62613 6.712C2.33547 5.48 3.30613 4.50933 4.53813 3.8C5.77013 3.05333 7.11413 2.68 8.57013 2.68H32.8181C34.2741 2.68 35.5995 3.05333 36.7941 3.8C38.0261 4.50933 39.0155 5.48 39.7621 6.712C40.5088 7.90666 40.8821 9.25066 40.8821 10.744V14.16H32.7061V11.136C32.7061 11.024 32.6688 10.9493 32.5941 10.912C32.5195 10.8373 32.4448 10.8 32.3701 10.8H8.90613C8.83147 10.8 8.7568 10.8373 8.68213 10.912C8.6448 10.9493 8.62613 11.024 8.62613 11.136V18.472C8.62613 18.5467 8.6448 18.6213 8.68213 18.696C8.7568 18.7333 8.83147 18.752 8.90613 18.752H32.8181C34.2741 18.752 35.5995 19.1253 36.7941 19.872C38.0261 20.5813 39.0155 21.552 39.7621 22.784C40.5088 24.016 40.8821 25.36 40.8821 26.816V34.936C40.8821 36.4293 40.5088 37.792 39.7621 39.024C39.0155 40.2187 38.0261 41.1893 36.7941 41.936C35.5995 42.6453 34.2741 43 32.8181 43H8.57013ZM52.5384 43C51.0824 43 49.7571 42.6453 48.5624 41.936C47.3678 41.1893 46.3971 40.2187 45.6504 39.024C44.9411 37.8293 44.5864 36.5227 44.5864 35.104V0.719997H52.5384V10.52H64.9144V18.472H52.5384V34.712C52.5384 34.7867 52.5758 34.8613 52.6504 34.936C52.7251 35.0107 52.7998 35.048 52.8744 35.048H64.9144V43H52.5384ZM76.5458 43C75.1271 43 73.8018 42.6453 72.5698 41.936C71.3751 41.1893 70.4231 40.2187 69.7138 39.024C69.0045 37.8293 68.6498 36.5227 68.6498 35.104V22.728H93.6258V18.808C93.6258 18.7333 93.5885 18.6587 93.5138 18.584C93.4392 18.5093 93.3645 18.472 93.2898 18.472H68.6498V10.52H93.6818C95.1378 10.52 96.4632 10.8933 97.6578 11.64C98.8525 12.3493 99.8045 13.3013 100.514 14.496C101.223 15.6907 101.578 16.9973 101.578 18.416V43H76.5458ZM76.9378 35.048H93.6258V29.84H76.6018V34.712C76.6018 34.7867 76.6391 34.8613 76.7138 34.936C76.7885 35.0107 76.8631 35.048 76.9378 35.048ZM103.98 43V18.416C103.98 16.9973 104.335 15.6907 105.044 14.496C105.791 13.3013 106.761 12.3493 107.956 11.64C109.188 10.8933 110.513 10.52 111.932 10.52H129.908V18.472H112.268C112.193 18.472 112.119 18.5093 112.044 18.584C111.969 18.6587 111.932 18.7333 111.932 18.808V43H103.98ZM139.115 43C137.659 43 136.334 42.6453 135.139 41.936C133.945 41.1893 132.974 40.2187 132.227 39.024C131.518 37.8293 131.163 36.5227 131.163 35.104V0.719997H139.115V10.52H151.491V18.472H139.115V34.712C139.115 34.7867 139.153 34.8613 139.227 34.936C139.302 35.0107 139.377 35.048 139.451 35.048H151.491V43H139.115ZM248.227 43C246.734 43 245.371 42.6453 244.139 41.936C242.945 41.1893 241.974 40.2187 241.227 39.024C240.518 37.792 240.163 36.4293 240.163 34.936V2.68H248.227V34.544C248.227 34.656 248.246 34.7493 248.283 34.824C248.358 34.8613 248.451 34.88 248.563 34.88H271.971C272.083 34.88 272.158 34.8613 272.195 34.824C272.27 34.7493 272.307 34.656 272.307 34.544V2.68H280.483V34.936C280.483 36.4293 280.11 37.792 279.363 39.024C278.617 40.2187 277.627 41.1893 276.395 41.936C275.201 42.6453 273.875 43 272.419 43H248.227ZM284.298 55.88V10.52H309.33C310.786 10.52 312.112 10.8933 313.306 11.64C314.501 12.3493 315.453 13.3013 316.162 14.496C316.872 15.6907 317.226 16.9973 317.226 18.416V35.104C317.226 36.5227 316.872 37.8293 316.162 39.024C315.453 40.2187 314.501 41.1893 313.306 41.936C312.112 42.6453 310.786 43 309.33 43H292.25V55.88H284.298ZM292.586 35.048H308.938C309.05 35.048 309.125 35.0107 309.162 34.936C309.237 34.8613 309.274 34.7867 309.274 34.712V18.808C309.274 18.7333 309.237 18.6587 309.162 18.584C309.125 18.5093 309.05 18.472 308.938 18.472H292.586C292.512 18.472 292.437 18.5093 292.362 18.584C292.288 18.6587 292.25 18.7333 292.25 18.808V34.712C292.25 34.7867 292.288 34.8613 292.362 34.936C292.437 35.0107 292.512 35.048 292.586 35.048Z" fill="black"/>
<path d="M154.029 43V2.68H162.597L176.709 19.536L190.765 2.68H199.389V43H191.269V14.72L176.709 32.136L162.093 14.776V43H154.029ZM211.358 43C209.939 43 208.633 42.6453 207.438 41.936C206.243 41.1893 205.273 40.2187 204.526 39.024C203.817 37.8293 203.462 36.5227 203.462 35.104V18.416C203.462 16.9973 203.817 15.6907 204.526 14.496C205.273 13.3013 206.243 12.3493 207.438 11.64C208.633 10.8933 209.939 10.52 211.358 10.52H228.494C229.95 10.52 231.275 10.8933 232.47 11.64C233.665 12.3493 234.617 13.3013 235.326 14.496C236.035 15.6907 236.39 16.9973 236.39 18.416V30.792H211.414V34.712C211.414 34.7867 211.451 34.8613 211.526 34.936C211.601 35.0107 211.675 35.048 211.75 35.048H236.39V43H211.358ZM211.414 23.68H228.438V18.808C228.438 18.7333 228.401 18.6587 228.326 18.584C228.251 18.5093 228.177 18.472 228.102 18.472H211.75C211.675 18.472 211.601 18.5093 211.526 18.584C211.451 18.6587 211.414 18.7333 211.414 18.808V23.68Z" fill="#EE2B69"/>
</svg>
